<?xml version="1.0" standalone="no"?>
<!DOCTYPE svg PUBLIC "-//W3C//DTD SVG 20010904//EN"
 "http://www.w3.org/TR/2001/REC-SVG-20010904/DTD/svg10.dtd">
<svg version="1.0" xmlns="http://www.w3.org/2000/svg"
 width="300.000000pt" height="101.000000pt" viewBox="0 0 300.000000 101.000000"
 preserveAspectRatio="xMidYMid meet">
<metadata>
Created by potrace 1.10, written by Peter Selinger 2001-2011
</metadata>
<g transform="translate(0.000000,101.000000) scale(0.050000,-0.050000)"
fill="#000000" stroke="none">
<path d="M639 1548 c-300 -170 -339 -390 -108 -608 173 -163 229 -325 158
-463 -40 -77 -32 -85 31 -30 254 223 271 371 70 621 -158 197 -178 316 -79
466 45 69 31 72 -72 14z"/>
<path d="M734 1496 c-65 -143 -36 -253 110 -412 138 -151 174 -312 96 -439
-54 -90 -24 -81 74 20 190 198 170 365 -72 575 -119 104 -155 160 -167 270
l-8 60 -33 -74z"/>
<path d="M1922 1538 c-161 -20 -149 -3 -190 -288 -31 -213 -80 -470 -123 -638
l-15 -58 142 10 c342 25 575 284 419 466 l-49 57 75 72 c228 216 87 421 -259
379z m149 -207 c39 -28 39 -29 -1 -69 -57 -56 -161 -81 -143 -33 7 19 13 56
13 83 0 57 67 67 131 19z m-51 -331 c61 -61 9 -142 -108 -171 l-57 -15 14 98
c22 144 68 171 151 88z"/>
<path d="M2950 1523 c-369 -226 -490 -963 -158 -963 268 0 551 462 499 812
-26 171 -190 244 -341 151z m159 -300 c26 -118 -48 -328 -141 -401 -178 -140
-242 83 -97 332 82 140 214 178 238 69z"/>
<path d="M3643 1533 c-337 -122 -504 -772 -251 -971 171 -135 444 65 517 379
l28 123 -63 -11 c-35 -7 -111 -18 -169 -25 -58 -7 -105 -23 -105 -36 0 -12 -6
-42 -12 -66 -11 -41 -7 -43 60 -32 95 15 100 -47 10 -122 -125 -106 -187 -55
-173 143 20 305 227 608 286 421 11 -35 24 -39 94 -27 110 17 115 22 94 96
-38 136 -159 185 -316 128z"/>
<path d="M4288 1522 c-254 -116 -414 -508 -331 -813 92 -336 536 -177 625 224
31 135 33 134 -155 103 -156 -26 -157 -27 -163 -90 -6 -63 -5 -64 65 -52 82
13 86 1 32 -88 -83 -136 -221 -96 -221 63 0 163 120 468 201 512 46 24 99 -4
99 -53 0 -31 41 -35 138 -15 59 11 63 17 50 74 -36 165 -163 215 -340 135z"/>
<path d="M2416 1526 c-39 -6 -56 -23 -64 -62 -6 -30 -34 -180 -62 -334 -29
-154 -64 -343 -79 -420 -32 -167 -37 -156 71 -131 49 11 136 20 196 21 l107 0
-12 63 c-7 34 -13 70 -13 80 0 11 -32 13 -71 5 l-72 -13 14 78 c25 136 145
656 159 692 15 36 -34 42 -174 21z"/>
<path d="M4767 1504 c-46 -19 -88 -38 -93 -44 -5 -5 -1 -145 9 -310 16 -269
14 -314 -20 -437 l-39 -137 113 14 c137 17 119 -1 162 163 19 75 101 269 182
431 164 327 163 314 29 321 l-96 5 -61 -185 c-77 -233 -86 -232 -76 15 4 110
0 199 -10 199 -9 -1 -55 -16 -100 -35z"/>
<path d="M369 970 c-28 -149 -1 -232 109 -330 55 -49 113 -121 129 -159 l29
-70 24 88 c34 128 11 205 -97 325 -52 58 -114 131 -138 162 l-43 56 -13 -72z"/>
</g>
</svg>
